<svg width="22" height="16" viewBox="0 0 22 16" fill="none" xmlns="http://www.w3.org/2000/svg">
<g id="Slovakia (SK)" clip-path="url(#clip0_52_2894)">
<path id="Vector" d="M0 0H21.3333V16H0V0Z" fill="#EE1C25"/>
<path id="Vector_2" d="M0 0H21.3333V10.6667H0V0Z" fill="#0B4EA2"/>
<path id="Vector_3" d="M0 0H21.3333V5.33333H0V0Z" fill="white"/>
<path id="Vector_4" d="M7.7667 12.3601C6.33336 11.6701 4.28003 10.2968 4.28003 7.5868C4.28003 4.87347 4.41336 3.64014 4.41336 3.64014H11.1234C11.1234 3.64014 11.2534 4.87347 11.2534 7.5868C11.2534 10.3001 9.20003 11.6668 7.7667 12.3601Z" fill="white"/>
<path id="Vector_5" d="M7.76665 12C6.44998 11.3667 4.56665 10.1067 4.56665 7.62C4.56665 5.13333 4.68665 4 4.68665 4H10.8467C10.8467 4 10.9633 5.13333 10.9633 7.62C10.9667 10.11 9.08332 11.3667 7.76665 12Z" fill="#EE1C25"/>
<path id="Vector_6" d="M8.04665 6.96671C8.40332 6.97337 9.09998 6.98671 9.71665 6.78004C9.71665 6.78004 9.70332 7.00337 9.70332 7.26004C9.70332 7.51671 9.71998 7.74004 9.71998 7.74004C9.15332 7.55004 8.44998 7.54671 8.04665 7.55004V8.92337H7.48665V7.55004C7.08665 7.54671 6.38332 7.55004 5.81665 7.74004C5.81665 7.74004 5.83332 7.51671 5.83332 7.26004C5.83332 7.00004 5.81665 6.78004 5.81665 6.78004C6.43332 6.98671 7.12998 6.97337 7.48332 6.96671V6.10337C7.15998 6.10337 6.69332 6.11671 6.16332 6.29337C6.16332 6.29337 6.17998 6.07337 6.17998 5.81337C6.17998 5.55671 6.16332 5.33337 6.16332 5.33337C6.69332 5.51004 7.15998 5.52671 7.48332 5.52337C7.46665 4.97671 7.30665 4.29004 7.30665 4.29004C7.30665 4.29004 7.63665 4.31337 7.76665 4.31337C7.89998 4.31337 8.22665 4.29004 8.22665 4.29004C8.22665 4.29004 8.06665 4.97671 8.04998 5.52337C8.37332 5.52671 8.83998 5.51004 9.36998 5.33337C9.36998 5.33337 9.35332 5.55671 9.35332 5.81337C9.35332 6.07337 9.36998 6.29337 9.36998 6.29337C8.9428 6.15563 8.49533 6.09138 8.04665 6.10337V6.97004V6.96671Z" fill="white"/>
<path id="Vector_7" d="M7.76664 8.77686C7.10331 8.77686 6.74997 9.69352 6.74997 9.69352C6.74997 9.69352 6.54997 9.26019 6.00997 9.26019C5.64331 9.26019 5.37664 9.58352 5.20331 9.88686C5.86997 10.9435 6.93331 11.5969 7.76664 12.0002C8.59997 11.6002 9.66664 10.9435 10.33 9.88686C10.1566 9.58686 9.88997 9.26019 9.52331 9.26019C8.98331 9.26019 8.78331 9.69352 8.78331 9.69352C8.78331 9.69352 8.43331 8.77686 7.76664 8.77686Z" fill="#0B4EA2"/>
</g>
<defs>
<clipPath id="clip0_52_2894">
<rect width="21.3333" height="16" fill="white"/>
</clipPath>
</defs>
</svg>
