<svg width="20" height="20" viewBox="0 0 20 20" fill="none" xmlns="http://www.w3.org/2000/svg">
<g id="globe-04" clip-path="url(#clip0_52_11249)">
<path id="Icon" d="M2.5634 6.23552L6.13677 8.78788C6.32271 8.92069 6.41568 8.9871 6.51298 9.0024C6.59859 9.01586 6.68628 9.0023 6.76382 8.96358C6.85194 8.91959 6.92049 8.82819 7.05759 8.64539L7.81268 7.6386C7.85145 7.58691 7.87083 7.56106 7.89362 7.53876C7.91385 7.51897 7.93604 7.50128 7.95986 7.48598C7.98668 7.46876 8.01621 7.45563 8.07525 7.42939L11.2991 5.99658C11.4327 5.93718 11.4995 5.90749 11.5499 5.86111C11.5945 5.82009 11.6296 5.76984 11.6527 5.71387C11.6789 5.65059 11.6838 5.57763 11.6935 5.43172L11.9296 1.89101M11.2501 11.2498L13.4301 12.1841C13.683 12.2925 13.8095 12.3467 13.8765 12.4368C13.9353 12.5157 13.9642 12.613 13.9581 12.7112C13.9511 12.8232 13.8748 12.9377 13.7222 13.1667L12.698 14.703C12.6256 14.8115 12.5895 14.8658 12.5417 14.9051C12.4993 14.9399 12.4506 14.966 12.3982 14.9819C12.339 14.9999 12.2737 14.9999 12.1433 14.9999H10.4806C10.3078 14.9999 10.2214 14.9999 10.1479 14.9709C10.083 14.9454 10.0255 14.904 9.98077 14.8505C9.93009 14.7899 9.90277 14.7079 9.84813 14.544L9.25407 12.7618C9.22184 12.6651 9.20573 12.6168 9.20149 12.5677C9.19773 12.5241 9.20085 12.4802 9.21073 12.4376C9.22188 12.3896 9.24467 12.344 9.29024 12.2528L9.7415 11.3503C9.83319 11.167 9.87903 11.0753 9.94965 11.0183C10.0119 10.9682 10.0872 10.937 10.1667 10.9284C10.2569 10.9188 10.3541 10.9512 10.5486 11.016L11.2501 11.2498ZM18.3334 9.99984C18.3334 14.6022 14.6025 18.3332 10.0001 18.3332C5.39771 18.3332 1.66675 14.6022 1.66675 9.99984C1.66675 5.39746 5.39771 1.6665 10.0001 1.6665C14.6025 1.6665 18.3334 5.39746 18.3334 9.99984Z" stroke="#232122" stroke-width="1.5" stroke-linecap="round" stroke-linejoin="round"/>
</g>
<defs>
<clipPath id="clip0_52_11249">
<rect width="20" height="20" fill="white"/>
</clipPath>
</defs>
</svg>
