<svg width="32" height="32" viewBox="0 0 32 32" fill="none" xmlns="http://www.w3.org/2000/svg">
<path id="Subtract" fill-rule="evenodd" clip-rule="evenodd" d="M16 0C7.16344 0 0 7.16344 0 16C0 24.8366 7.16344 32 16 32C24.8366 32 32 24.8366 32 16C32 7.16344 24.8366 0 16 0ZM27.0758 18.6031C27.0758 15.002 24.341 12.0397 20.8351 11.6798C20.8197 10.8182 20.6425 9.96679 20.3125 9.16999C19.9667 8.33527 19.4599 7.57682 18.8211 6.93796C18.1822 6.29909 17.4238 5.79231 16.589 5.44656C15.7543 5.10081 14.8597 4.92285 13.9562 4.92285C13.0527 4.92285 12.158 5.10081 11.3233 5.44656C10.4886 5.79231 9.73014 6.29909 9.09128 6.93796C8.45241 7.57682 7.94563 8.33527 7.59988 9.16999C7.27452 9.95547 7.09775 10.794 7.07803 11.6431H7.07585V22.4861C7.07585 24.1855 8.45343 25.5631 10.1528 25.5631H20.1158C23.9597 25.5631 27.0758 22.447 27.0758 18.6031ZM10.3966 10.3284C10.2234 10.7466 10.1254 11.1917 10.1067 11.6431H17.8057C17.7869 11.1917 17.6889 10.7466 17.5157 10.3284C17.3221 9.861 17.0383 9.43627 16.6805 9.07851C16.3227 8.72074 15.898 8.43695 15.4306 8.24333C14.9631 8.04971 14.4621 7.95005 13.9562 7.95005C13.4502 7.95005 12.9492 8.04971 12.4818 8.24333C12.0143 8.43695 11.5896 8.72074 11.2318 9.07851C10.8741 9.43628 10.5903 9.861 10.3966 10.3284ZM20.1156 21.2427C21.5736 21.2427 22.7556 20.0608 22.7556 18.6027C22.7556 17.1447 21.5736 15.9627 20.1156 15.9627C18.6576 15.9627 17.4756 17.1447 17.4756 18.6027C17.4756 20.0608 18.6576 21.2427 20.1156 21.2427Z" fill="#8C7DEE"/>
</svg>
