<svg width="80" height="80" viewBox="0 0 80 80" fill="none" xmlns="http://www.w3.org/2000/svg">
<g id="grid-03">
<path id="Icon" d="M26.6667 10H20.6667C16.933 10 15.0661 10 13.6401 10.7266C12.3856 11.3658 11.3658 12.3856 10.7266 13.6401C10 15.0661 10 16.933 10 20.6667V26.6667M26.6667 70H20.6667C16.933 70 15.0661 70 13.6401 69.2734C12.3856 68.6342 11.3658 67.6144 10.7266 66.3599C10 64.9339 10 63.067 10 59.3333V53.3333M70 26.6667V20.6667C70 16.933 70 15.0661 69.2734 13.6401C68.6342 12.3856 67.6144 11.3658 66.3599 10.7266C64.9339 10 63.067 10 59.3333 10H53.3333M70 53.3333V59.3333C70 63.067 70 64.9339 69.2734 66.3599C68.6342 67.6144 67.6144 68.6342 66.3599 69.2734C64.9339 70 63.067 70 59.3333 70H53.3333M53.3333 40C53.3333 47.3638 47.3638 53.3333 40 53.3333C32.6362 53.3333 26.6667 47.3638 26.6667 40C26.6667 32.6362 32.6362 26.6667 40 26.6667C47.3638 26.6667 53.3333 32.6362 53.3333 40Z" stroke="#CAC7C4" stroke-width="2" stroke-linecap="round" stroke-linejoin="round"/>
</g>
</svg>
